<svg width="793" height="150" viewBox="0 0 793 150" fill="none" xmlns="http://www.w3.org/2000/svg">
<path fill-rule="evenodd" clip-rule="evenodd" d="M81.0093 57.04H110.348L105.114 61.4998H80.4414C80.8181 60.0432 81.0089 58.5446 81.0093 57.04ZM3.16699 57.04H32.5059C32.5063 58.5446 32.6972 60.0432 33.0738 61.4998H8.40144L3.16699 57.04Z" fill="#1080C2"/>
<path fill-rule="evenodd" clip-rule="evenodd" d="M80.8271 62.2504H105.891L100.576 66.7103H78.9948C79.7985 65.3105 80.4145 63.811 80.8271 62.2504ZM7.62988 62.2504H32.6987C33.1113 63.811 33.7273 65.3105 34.531 66.7103H12.9501L7.62988 62.2504Z" fill="white"/>
<path fill-rule="evenodd" clip-rule="evenodd" d="M12.0874 67.4606H34.0916C35.0554 69.1014 36.2399 70.602 37.6117 71.9205H17.5094L12.0874 67.4606ZM79.4287 67.4606H101.433L96.0108 71.9205H75.9086C77.2805 70.6021 78.465 69.1015 79.4287 67.4606Z" fill="#5CB85C"/>
<path d="M28.3975 138.234C24.6632 134.514 21.6982 130.093 19.6755 125.224C17.6528 120.355 16.6112 115.134 16.6095 109.862V73.4106L0 56.7934L1.8548 54.9331L16.6252 40.1495V16.6172H40.1516L56.761 0L73.3679 16.6172H96.889V40.1495L113.499 56.7666L96.889 73.3838V109.835C96.8879 115.108 95.8457 120.328 93.823 125.197C91.8003 130.066 88.8384 134.487 85.1036 138.207C81.3842 141.944 76.9638 144.909 72.0965 146.933C67.2291 148.957 62.0084 149.999 56.7375 150C51.4721 149.999 46.2602 148.96 41.3968 146.941C36.5334 144.922 32.1166 141.963 28.3975 138.234ZM21.8599 109.862C21.8624 114.445 22.7686 118.982 24.5283 123.214C26.2881 127.445 28.8672 131.287 32.115 134.519C35.3457 137.769 39.1845 140.347 43.4138 142.108C47.6431 143.869 52.1802 144.776 56.761 144.779C61.3418 144.776 65.8763 143.869 70.1056 142.108C74.335 140.347 78.1738 137.769 81.4045 134.519C84.6527 131.288 87.2313 127.446 88.9911 123.214C90.7509 118.983 91.6576 114.445 91.6595 109.862V72.6869H73.7446L74.8146 71.4489C76.5196 69.4584 77.8466 67.1728 78.7308 64.7051C79.5433 62.3896 79.9836 59.9595 80.0337 57.506H76.6537C76.4706 62.5222 74.3934 67.283 70.8408 70.8272C68.9959 72.6777 66.8031 74.1446 64.3895 75.1446C61.9759 76.1446 59.3891 76.6574 56.7767 76.6535C54.1644 76.6574 51.5775 76.1446 49.1639 75.1446C46.7503 74.1446 44.5576 72.6777 42.7127 70.8272C39.162 67.2821 37.0867 62.5215 36.905 57.506H33.5224C33.572 59.9591 34.0106 62.389 34.82 64.7051C35.7053 67.1723 37.0323 69.4577 38.7363 71.4489L39.8088 72.6869H21.8913L21.8599 109.862ZM46.4144 67.1125C47.7726 68.474 49.3863 69.5534 51.1626 70.2894C52.939 71.0253 54.8437 71.4027 56.7663 71.4004C58.6889 71.4033 60.5935 71.0259 62.3699 70.29C64.1463 69.5541 65.7576 68.4745 67.1155 67.1125C69.687 64.5542 71.2165 61.1294 71.4032 57.506H42.1659C42.3412 61.1236 43.8534 64.5476 46.4092 67.1125H46.4144ZM80.1357 65.2038C79.3677 67.3451 78.2837 69.3596 76.9205 71.1806H91.6987L105.365 57.506H81.5353C81.4789 60.1302 81.004 62.7288 80.1304 65.2038H80.1357ZM36.6042 71.1806C35.2401 69.3602 34.156 67.3456 33.389 65.2038C32.52 62.7281 32.0527 60.1294 32.0025 57.506H8.13338L21.7998 71.1806H36.6042ZM80.0337 56.0056H105.37L92.2403 42.867L75.4163 49.8358C76.15 51.8139 76.5626 53.8969 76.638 56.0056H80.0337ZM71.3823 56.0056C71.3113 54.5884 71.0335 53.189 70.5608 51.8511L63.9552 54.5902C64.0952 55.0533 64.1899 55.5292 64.2352 56.0108L71.3823 56.0056ZM49.2921 56.0056C49.341 55.5236 49.4363 55.0477 49.5799 54.585L42.9691 51.8459C42.4951 53.1834 42.2199 54.583 42.1502 56.0004L49.2921 56.0056ZM33.4963 56.0056H36.8893C36.9659 53.8971 37.3784 51.8143 38.111 49.8358L21.2923 42.867L21.0934 43.0652L8.15431 56.0108L33.4963 56.0056ZM50.1476 53.2017C50.3762 52.7765 50.6475 52.3744 50.9533 52.001L45.8938 46.9462C44.9433 47.9998 44.1511 49.186 43.542 50.4679L50.1476 53.2017ZM63.3771 53.2017L69.9827 50.4626C69.3755 49.1796 68.5832 47.9931 67.6308 46.9409L62.574 51.9958C62.8822 52.3713 63.151 52.7776 63.3771 53.2076V53.2017ZM61.5118 50.9396L66.5635 45.8796C65.5103 44.9272 64.326 44.133 63.0448 43.5213L60.3058 50.1302C60.7327 50.3627 61.1369 50.6354 61.5118 50.9449V50.9396ZM52.0076 50.9396C52.3816 50.6346 52.7841 50.3653 53.2084 50.1354L50.4694 43.5265C49.1909 44.1402 48.0085 44.9342 46.956 45.8848L52.0076 50.9396ZM54.5897 49.5622C55.0528 49.4234 55.529 49.33 56.0102 49.2835V42.1328C54.5933 42.204 53.195 42.4818 51.8585 42.9579L54.5897 49.5622ZM58.9298 49.5622L61.6636 42.9527C60.3291 42.4758 58.9297 42.198 57.5145 42.1275V49.2783C57.9941 49.3294 58.4686 49.4261 58.9298 49.5675V49.5622ZM38.6787 48.4525C39.563 46.5371 40.7428 44.7735 42.1764 43.2262L21.8599 22.8995V41.4843L38.6787 48.4525ZM74.8434 48.4525L91.6647 41.4843V22.8995L71.3483 43.2262C72.7805 44.7743 73.9598 46.54 74.8381 48.4577L74.8434 48.4525ZM70.2888 42.1648L90.6 21.8382H72.0285L69.7106 27.4401C69.3606 27.0492 68.9578 26.7078 68.5151 26.4265L70.6576 21.2643L57.5275 8.12634V36.8738C59.635 36.9504 61.7161 37.3631 63.6936 38.0961L64.8395 35.3302C65.2149 35.672 65.6621 35.9267 66.1475 36.0755L65.0749 38.67C66.9839 39.5534 68.7424 40.7328 70.2835 42.1648H70.2888ZM43.2359 42.1648C44.781 40.7288 46.5447 39.5475 48.4602 38.6647L41.4962 21.8382H22.9195L43.2359 42.1648ZM49.8441 38.0961C51.8216 37.3631 53.9027 36.9504 56.0102 36.8738V8.12634L42.8775 21.2643L49.8441 38.0961ZM54.1293 138.54V123.852C50.3995 123.285 46.9504 121.535 44.2876 118.862C42.6462 117.228 41.3441 115.286 40.455 113.147C39.5659 111.008 39.1058 108.715 39.1051 106.399V91.3894H44.3582V106.399C44.3587 108.025 44.6799 109.636 45.3052 111.137C45.9305 112.638 46.8458 114.001 47.9998 115.147C49.1453 116.3 50.507 117.216 52.0076 117.841C53.5083 118.465 55.12 118.787 56.7453 118.786C58.3707 118.787 59.9798 118.465 61.4804 117.841C62.9811 117.216 64.3427 116.3 65.4883 115.147C66.6413 114.001 67.5559 112.638 68.1802 111.136C68.8046 109.635 69.1248 108.025 69.1246 106.399V91.3894H74.3829V106.399C74.3826 108.715 73.9238 111.008 73.0356 113.146C72.1475 115.285 70.8458 117.227 69.2057 118.862C66.5397 121.534 63.0895 123.283 59.3588 123.852V138.54H54.1293ZM54.1293 112.853V84.9251H39.1287V79.6662H74.4039V84.9251H59.4007V112.853H54.1293ZM65.2188 34.6817C64.9645 34.4322 64.7629 34.1341 64.625 33.8056C64.487 33.477 64.4157 33.1241 64.4157 32.7678C64.4157 32.4114 64.487 32.0586 64.625 31.73C64.7629 31.4014 64.9645 31.104 65.2188 30.8544C65.5546 30.5229 65.9698 30.2831 66.4248 30.1582C66.8798 30.0334 67.3613 30.0274 67.8192 30.1412C67.8384 29.7024 67.7224 29.2687 67.4869 28.8979C67.3158 28.6402 67.0746 28.4373 66.7911 28.3136V26.4644C67.599 26.7022 68.3349 27.1367 68.9336 27.7293C69.4056 28.194 69.7793 28.7482 70.035 29.3593C70.2907 29.9704 70.4225 30.6258 70.4222 31.2883C70.4237 32.3713 70.0719 33.4256 69.4202 34.2904C69.3215 34.4306 69.2103 34.5616 69.088 34.6817C68.5739 35.1922 67.879 35.4773 67.1547 35.4748C66.4357 35.4742 65.7466 35.1893 65.2371 34.6817H65.2188Z" fill="#CAA56C"/>
<path d="M168.001 61.6237H163.857L160.471 52.6627H146.925L143.739 61.6237H139.572L151.826 29.6583H155.703L168.001 61.6237ZM159.245 49.2968L154.232 35.6769C154.069 35.2311 153.906 34.5178 153.742 33.537H153.653C153.505 34.4435 153.334 35.1568 153.141 35.6769L148.172 49.2968H159.245Z" fill="black"/>
<path d="M194.504 61.6237H189.29L176.947 47.0008C176.487 46.4509 176.205 46.0794 176.101 45.8862H176.012V61.6237H172.268V29.6583H176.012V44.6825H176.101C176.309 44.3556 176.591 43.9915 176.947 43.5902L188.889 29.6583H193.546L179.844 44.9946L194.504 61.6237Z" fill="black"/>
<path d="M226.576 70.2058H223.123V61.6237H198.281V29.6583H202.024V58.2355H218.555V29.6583H222.299V58.2355H226.576V70.2058Z" fill="black"/>
<path d="M257.446 61.6237H253.703V38.5302C253.703 36.4497 253.777 34.9859 253.925 34.1388H253.792C253.509 34.867 253.168 35.5357 252.767 36.145L236.324 61.6237H231.69V29.6583H235.433V52.1723C235.433 54.5798 235.374 56.1476 235.255 56.8757H235.344C235.671 56.2219 236.087 55.5086 236.592 54.7358L252.633 29.6583H257.446V61.6237Z" fill="black"/>
<path d="M278.289 62.1587C273.759 62.1587 270.127 60.6652 267.394 57.6782C264.676 54.6912 263.317 50.8051 263.317 46.02C263.317 40.8782 264.706 36.7766 267.483 33.7153C270.261 30.654 274.041 29.1233 278.824 29.1233C283.235 29.1233 286.785 30.6094 289.473 33.5815C292.177 36.5537 293.528 40.4398 293.528 45.2398C293.528 50.4559 292.147 54.5798 289.384 57.6113C286.622 60.6429 282.923 62.1587 278.289 62.1587ZM278.556 32.5116C275.199 32.5116 272.474 33.7227 270.379 36.145C268.285 38.5673 267.238 41.7475 267.238 45.6856C267.238 49.6237 268.255 52.7965 270.29 55.2039C272.34 57.5965 275.006 58.7928 278.289 58.7928C281.794 58.7928 284.557 57.6485 286.577 55.3599C288.597 53.0714 289.607 49.8689 289.607 45.7525C289.607 41.532 288.627 38.2701 286.666 35.9667C284.705 33.6633 282.002 32.5116 278.556 32.5116Z" fill="black"/>
<path d="M323.373 61.6237H319.63V47.0454H303.098V61.6237H299.355V29.6583H303.098V43.6794H319.63V29.6583H323.373V61.6237Z" fill="black"/>
<path d="M348.226 61.6237H331.294V29.6583H347.513V33.0466H335.037V43.6794H346.578V47.0454H335.037V58.2355H348.226V61.6237Z" fill="black"/>
<path d="M357.662 49.542V61.6237H353.919V29.6583H362.698C366.114 29.6583 368.758 30.4905 370.629 32.1549C372.516 33.8193 373.459 36.1673 373.459 39.1989C373.459 42.2305 372.412 44.7122 370.317 46.6441C368.238 48.576 365.423 49.542 361.873 49.542H357.662ZM357.662 33.0466V46.1537H361.584C364.168 46.1537 366.136 45.5667 367.488 44.3927C368.854 43.2039 369.538 41.532 369.538 39.3772C369.538 35.1568 367.042 33.0466 362.052 33.0466H357.662Z" fill="black"/>
<path d="M403.058 61.6237H399.315V47.0454H382.783V61.6237H379.04V29.6583H382.783V43.6794H399.315V29.6583H403.058V61.6237Z" fill="black"/>
<path d="M423.857 62.1587C419.327 62.1587 415.695 60.6652 412.962 57.6782C410.244 54.6912 408.885 50.8051 408.885 46.02C408.885 40.8782 410.274 36.7766 413.051 33.7153C415.829 30.654 419.609 29.1233 424.392 29.1233C428.803 29.1233 432.353 30.6094 435.041 33.5815C437.745 36.5537 439.096 40.4398 439.096 45.2398C439.096 50.4559 437.715 54.5798 434.952 57.6113C432.19 60.6429 428.491 62.1587 423.857 62.1587ZM424.124 32.5116C420.767 32.5116 418.042 33.7227 415.948 36.145C413.853 38.5673 412.806 41.7475 412.806 45.6856C412.806 49.6237 413.824 52.7965 415.858 55.2039C417.908 57.5965 420.574 58.7928 423.857 58.7928C427.362 58.7928 430.125 57.6485 432.145 55.3599C434.165 53.0714 435.175 49.8689 435.175 45.7525C435.175 41.532 434.195 38.2701 432.234 35.9667C430.274 33.6633 427.57 32.5116 424.124 32.5116Z" fill="black"/>
<path d="M461.856 61.6237H444.923V29.6583H461.143V33.0466H448.666V43.6794H460.207V47.0454H448.666V58.2355H461.856V61.6237Z" fill="black"/>
<path d="M504.557 62.1587C500.026 62.1587 496.395 60.6652 493.662 57.6782C490.944 54.6912 489.585 50.8051 489.585 46.02C489.585 40.8782 490.973 36.7766 493.751 33.7153C496.528 30.654 500.309 29.1233 505.091 29.1233C509.503 29.1233 513.053 30.6094 515.741 33.5815C518.444 36.5537 519.796 40.4398 519.796 45.2398C519.796 50.4559 518.415 54.5798 515.652 57.6113C512.889 60.6429 509.191 62.1587 504.557 62.1587ZM504.824 32.5116C501.467 32.5116 498.742 33.7227 496.647 36.145C494.553 38.5673 493.506 41.7475 493.506 45.6856C493.506 49.6237 494.523 52.7965 496.558 55.2039C498.608 57.5965 501.274 58.7928 504.557 58.7928C508.062 58.7928 510.825 57.6485 512.845 55.3599C514.865 53.0714 515.875 49.8689 515.875 45.7525C515.875 41.532 514.895 38.2701 512.934 35.9667C510.973 33.6633 508.27 32.5116 504.824 32.5116Z" fill="black"/>
<path d="M525.623 61.6237V29.6583H542.689V33.0466H529.366V43.2113H535.426C538.605 43.2113 541.078 43.9841 542.845 45.5296C544.613 47.0602 545.496 49.2448 545.496 52.0832C545.496 55.0256 544.568 57.3513 542.711 59.0603C540.855 60.7693 538.322 61.6237 535.114 61.6237H525.623ZM529.366 46.5995V58.2355H534.624C536.837 58.2355 538.545 57.7154 539.748 56.6751C540.951 55.6349 541.553 54.1785 541.553 52.3061C541.553 48.5017 539.243 46.5995 534.624 46.5995H529.366Z" fill="black"/>
<path d="M590.447 70.2058H586.993V61.6237H551.279V29.6583H555.022V58.2355H566.852V29.6583H570.595V58.2355H582.404V29.6583H586.147V58.2355H590.447V70.2058Z" fill="black"/>
<path d="M612.493 61.6237H595.56V29.6583H611.78V33.0466H599.303V43.6794H610.844V47.0454H599.303V58.2355H612.493V61.6237Z" fill="black"/>
<path d="M639.931 60.2863C637.57 61.5346 634.629 62.1587 631.108 62.1587C626.563 62.1587 622.924 60.695 620.191 57.7674C617.458 54.8398 616.092 50.9983 616.092 46.2429C616.092 41.1308 617.629 36.9995 620.704 33.849C623.778 30.6986 627.677 29.1233 632.401 29.1233C635.431 29.1233 637.941 29.5617 639.931 30.4385V34.4286C637.644 33.1506 635.119 32.5116 632.356 32.5116C628.687 32.5116 625.709 33.7376 623.422 36.1896C621.149 38.6416 620.013 41.9184 620.013 46.02C620.013 49.9135 621.075 53.0194 623.199 55.3377C625.338 57.6411 628.138 58.7928 631.599 58.7928C634.807 58.7928 637.584 58.0795 639.931 56.6528V60.2863Z" fill="black"/>
<path d="M664.874 33.0466H655.65V61.6237H651.907V33.0466H642.706V29.6583H664.874V33.0466Z" fill="black"/>
<path d="M669.453 61.6237V29.6583H678.543C681.306 29.6583 683.497 30.3345 685.116 31.6868C686.735 33.0391 687.544 34.8001 687.544 36.9698C687.544 38.7828 687.054 40.358 686.074 41.6955C685.094 43.033 683.742 43.9841 682.019 44.5488V44.6379C684.173 44.8906 685.896 45.7079 687.188 47.0899C688.48 48.4571 689.126 50.2404 689.126 52.4398C689.126 55.1742 688.146 57.3884 686.185 59.0826C684.225 60.7767 681.752 61.6237 678.766 61.6237H669.453ZM673.196 33.0466V43.3673H677.028C679.078 43.3673 680.69 42.8769 681.863 41.8961C683.036 40.9005 683.623 39.5035 683.623 37.7054C683.623 34.5995 681.581 33.0466 677.496 33.0466H673.196ZM673.196 46.7333V58.2355H678.276C680.474 58.2355 682.175 57.7154 683.378 56.6751C684.596 55.6349 685.205 54.2082 685.205 52.3952C685.205 48.6206 682.635 46.7333 677.496 46.7333H673.196Z" fill="black"/>
<path d="M708.031 62.1587C703.501 62.1587 699.869 60.6652 697.136 57.6782C694.418 54.6912 693.059 50.8051 693.059 46.02C693.059 40.8782 694.448 36.7766 697.225 33.7153C700.003 30.654 703.783 29.1233 708.566 29.1233C712.977 29.1233 716.527 30.6094 719.216 33.5815C721.919 36.5537 723.271 40.4398 723.271 45.2398C723.271 50.4559 721.889 54.5798 719.127 57.6113C716.364 60.6429 712.665 62.1587 708.031 62.1587ZM708.299 32.5116C704.942 32.5116 702.216 33.7227 700.122 36.145C698.027 38.5673 696.98 41.7475 696.98 45.6856C696.98 49.6237 697.998 52.7965 700.033 55.2039C702.082 57.5965 704.749 58.7928 708.031 58.7928C711.537 58.7928 714.299 57.6485 716.319 55.3599C718.339 53.0714 719.349 49.8689 719.349 45.7525C719.349 41.532 718.369 38.2701 716.408 35.9667C714.448 33.6633 711.745 32.5116 708.299 32.5116Z" fill="black"/>
<path d="M156.238 120.877C151.663 120.877 147.935 119.391 145.053 116.418C142.172 113.431 140.731 109.545 140.731 104.76C140.731 99.7076 142.194 95.6209 145.12 92.5001C148.046 89.3794 151.923 87.819 156.75 87.819C161.31 87.819 164.994 89.3125 167.801 92.2995C170.623 95.2865 172.034 99.2246 172.034 104.114C172.034 109.137 170.571 113.186 167.645 116.262C164.734 119.339 160.931 120.877 156.238 120.877ZM156.55 94.0159C154.025 94.0159 152.019 94.967 150.534 96.8692C149.049 98.7565 148.306 101.261 148.306 104.381C148.306 107.547 149.049 110.051 150.534 111.893C152.019 113.736 153.965 114.657 156.371 114.657C158.852 114.657 160.82 113.766 162.276 111.983C163.731 110.184 164.459 107.695 164.459 104.515C164.459 101.201 163.753 98.6227 162.342 96.78C160.931 94.9373 159 94.0159 156.55 94.0159Z" fill="black"/>
<path d="M184.845 87.5961L180.545 97.4933H176.223L178.763 87.5961H184.845Z" fill="black"/>
<path d="M213.586 120.319H187.853V116.173L204.229 94.2165H189.034V88.354H213.542V92.3887L197.522 114.479H213.586V120.319Z" fill="black"/>
<path d="M218.31 120.319V88.354H229.94C233.504 88.354 236.245 89.0078 238.161 90.3156C240.077 91.6233 241.035 93.4661 241.035 95.8438C241.035 97.5676 240.448 99.076 239.275 100.369C238.116 101.662 236.631 102.561 234.819 103.066V103.155C237.091 103.438 238.904 104.277 240.255 105.674C241.622 107.071 242.305 108.773 242.305 110.779C242.305 113.706 241.258 116.032 239.164 117.756C237.069 119.465 234.21 120.319 230.586 120.319H218.31ZM225.506 93.6592V101.238H228.67C230.155 101.238 231.321 100.882 232.168 100.168C233.029 99.4401 233.46 98.4444 233.46 97.1812C233.46 94.8332 231.707 93.6592 228.202 93.6592H225.506ZM225.506 106.588V115.014H229.405C231.068 115.014 232.368 114.628 233.304 113.855C234.255 113.082 234.73 112.027 234.73 110.69C234.73 109.412 234.262 108.409 233.326 107.68C232.405 106.952 231.113 106.588 229.449 106.588H225.506Z" fill="black"/>
<path d="M266.746 120.319H247.585V88.354H266.011V94.2165H254.782V101.327H265.231V107.168H254.782V114.479H266.746V120.319Z" fill="black"/>
<path d="M298.428 120.319H289.338L280.025 106.432C279.847 106.165 279.564 105.578 279.178 104.671H279.067V120.319H271.87V88.354H279.067V103.467H279.178C279.357 103.051 279.654 102.457 280.069 101.684L288.892 88.354H297.47L286.33 103.601L298.428 120.319Z" fill="black"/>
<path d="M308.699 120.319H301.503V88.354H308.699V120.319Z" fill="black"/>
<path d="M314.514 119.093V111.96C315.806 113.045 317.21 113.862 318.725 114.412C320.24 114.947 321.77 115.215 323.315 115.215C324.221 115.215 325.008 115.133 325.676 114.97C326.36 114.806 326.924 114.583 327.37 114.301C327.83 114.004 328.172 113.662 328.395 113.275C328.617 112.874 328.729 112.443 328.729 111.983C328.729 111.358 328.551 110.801 328.194 110.311C327.838 109.82 327.347 109.367 326.724 108.951C326.115 108.535 325.387 108.134 324.54 107.747C323.694 107.361 322.78 106.967 321.8 106.566C319.304 105.526 317.44 104.255 316.208 102.754C314.99 101.253 314.381 99.4401 314.381 97.315C314.381 95.6506 314.715 94.224 315.383 93.0351C316.052 91.8314 316.958 90.8431 318.101 90.0704C319.26 89.2976 320.597 88.7329 322.112 88.3763C323.627 88.0047 325.231 87.819 326.924 87.819C328.588 87.819 330.058 87.923 331.336 88.1311C332.628 88.3242 333.816 88.6289 334.9 89.045V95.71C334.366 95.3385 333.779 95.0116 333.14 94.7292C332.516 94.4469 331.87 94.2165 331.202 94.0382C330.533 93.845 329.865 93.7038 329.197 93.6147C328.543 93.5255 327.919 93.4809 327.325 93.4809C326.508 93.4809 325.766 93.5627 325.097 93.7261C324.429 93.8747 323.864 94.0902 323.404 94.3726C322.943 94.6549 322.587 94.9967 322.334 95.3979C322.082 95.7843 321.956 96.2227 321.956 96.7131C321.956 97.2481 322.097 97.7311 322.379 98.162C322.661 98.5781 323.062 98.9794 323.582 99.3658C324.102 99.7373 324.733 100.109 325.476 100.48C326.219 100.837 327.058 101.208 327.994 101.595C329.271 102.13 330.415 102.702 331.425 103.311C332.45 103.906 333.326 104.582 334.054 105.34C334.782 106.098 335.339 106.967 335.725 107.948C336.111 108.914 336.304 110.043 336.304 111.336C336.304 113.119 335.962 114.62 335.279 115.839C334.611 117.043 333.697 118.023 332.539 118.781C331.38 119.524 330.028 120.059 328.484 120.386C326.954 120.713 325.335 120.877 323.627 120.877C321.874 120.877 320.203 120.728 318.614 120.431C317.039 120.134 315.673 119.688 314.514 119.093Z" fill="black"/>
<path d="M363.998 94.2165H354.885V120.319H347.667V94.2165H338.599V88.354H363.998V94.2165Z" fill="black"/>
<path d="M380.106 120.877C375.532 120.877 371.803 119.391 368.922 116.418C366.04 113.431 364.6 109.545 364.6 104.76C364.6 99.7076 366.063 95.6209 368.989 92.5001C371.915 89.3794 375.791 87.819 380.619 87.819C385.179 87.819 388.862 89.3125 391.67 92.2995C394.492 95.2865 395.903 99.2246 395.903 104.114C395.903 109.137 394.44 113.186 391.514 116.262C388.602 119.339 384.8 120.877 380.106 120.877ZM380.418 94.0159C377.893 94.0159 375.888 94.967 374.403 96.8692C372.917 98.7565 372.175 101.261 372.175 104.381C372.175 107.547 372.917 110.051 374.403 111.893C375.888 113.736 377.834 114.657 380.24 114.657C382.721 114.657 384.689 113.766 386.144 111.983C387.6 110.184 388.328 107.695 388.328 104.515C388.328 101.201 387.622 98.6227 386.211 96.78C384.8 94.9373 382.869 94.0159 380.418 94.0159Z" fill="black"/>
<path d="M429.969 120.319H422.706L409.538 100.235C408.766 99.0611 408.231 98.1769 407.934 97.5825H407.845C407.964 98.7119 408.023 100.436 408.023 102.754V120.319H401.228V88.354H408.981L421.658 107.814C422.238 108.691 422.772 109.56 423.263 110.422H423.352C423.233 109.679 423.173 108.215 423.173 106.031V88.354H429.969V120.319Z" fill="black"/>
<path d="M472.323 94.2165H463.21V120.319H455.992V94.2165H446.924V88.354H472.323V94.2165Z" fill="black"/>
<path d="M495.784 120.319H476.623V88.354H495.048V94.2165H483.819V101.327H494.269V107.168H483.819V114.479H495.784V120.319Z" fill="black"/>
<path d="M537.313 120.319H530.206V101.194C530.206 99.128 530.295 96.8469 530.474 94.3503H530.295C529.924 96.3119 529.59 97.7237 529.293 98.5856L521.807 120.319H515.925L508.305 98.8085C508.097 98.2289 507.763 96.7429 507.302 94.3503H507.102C507.295 97.5007 507.392 100.265 507.392 102.643V120.319H500.908V88.354H511.446L517.975 107.301C518.494 108.817 518.873 110.34 519.111 111.871H519.244C519.646 110.103 520.069 108.565 520.514 107.257L527.042 88.354H537.313V120.319Z" fill="black"/>
<path d="M551.773 120.319H544.577V88.354H551.773V120.319Z" fill="black"/>
<path d="M585.861 120.319H577.596L572.627 112.094C572.256 111.47 571.899 110.913 571.558 110.422C571.216 109.932 570.867 109.516 570.511 109.174C570.169 108.817 569.805 108.55 569.419 108.371C569.048 108.178 568.639 108.082 568.193 108.082H566.255V120.319H559.059V88.354H570.466C578.219 88.354 582.096 91.2518 582.096 97.0475C582.096 98.162 581.925 99.1949 581.584 100.146C581.242 101.082 580.759 101.929 580.135 102.687C579.512 103.445 578.754 104.099 577.863 104.649C576.987 105.199 576.006 105.63 574.922 105.942V106.031C575.397 106.179 575.858 106.425 576.303 106.766C576.749 107.093 577.18 107.48 577.596 107.926C578.011 108.371 578.405 108.854 578.776 109.374C579.163 109.88 579.512 110.378 579.824 110.868L585.861 120.319ZM566.255 93.7484V102.643H569.374C570.919 102.643 572.159 102.197 573.095 101.305C574.046 100.399 574.521 99.2766 574.521 97.9391C574.521 95.1453 572.85 93.7484 569.508 93.7484H566.255Z" fill="black"/>
<path d="M625.564 88.354L615.16 108.951V120.319H607.963V109.085L597.826 88.354H606.047L611.194 100.28C611.283 100.503 611.528 101.372 611.929 102.888H612.018C612.211 101.818 612.441 100.978 612.709 100.369L617.945 88.354H625.564Z" fill="black"/>
<path d="M641.539 120.877C636.964 120.877 633.236 119.391 630.354 116.418C627.473 113.431 626.032 109.545 626.032 104.76C626.032 99.7076 627.495 95.6209 630.421 92.5001C633.347 89.3794 637.224 87.819 642.051 87.819C646.611 87.819 650.295 89.3125 653.102 92.2995C655.924 95.2865 657.335 99.2246 657.335 104.114C657.335 109.137 655.872 113.186 652.946 116.262C650.035 119.339 646.233 120.877 641.539 120.877ZM641.851 94.0159C639.326 94.0159 637.321 94.967 635.835 96.8692C634.35 98.7565 633.607 101.261 633.607 104.381C633.607 107.547 634.35 110.051 635.835 111.893C637.321 113.736 639.266 114.657 641.673 114.657C644.153 114.657 646.121 113.766 647.577 111.983C649.032 110.184 649.76 107.695 649.76 104.515C649.76 101.201 649.055 98.6227 647.644 96.78C646.233 94.9373 644.302 94.0159 641.851 94.0159Z" fill="black"/>
<path d="M670.146 87.5961L665.846 97.4933H661.524L664.064 87.5961H670.146Z" fill="black"/>
<path d="M694.922 120.319H675.895V88.354H683.091V114.479H694.922V120.319Z" fill="black"/>
<path d="M718.271 120.319H699.244V88.354H706.44V114.479H718.271V120.319Z" fill="black"/>
<path d="M751.713 120.319H743.871L741.598 113.209H730.235L727.985 120.319H720.187L731.817 88.354H740.35L751.713 120.319ZM739.949 107.68L736.518 96.936C736.266 96.1336 736.088 95.175 735.984 94.0605H735.805C735.731 94.9967 735.545 95.9255 735.248 96.8469L731.773 107.68H739.949Z" fill="black"/>
<path d="M782.504 120.319H774.238L769.27 112.094C768.898 111.47 768.542 110.913 768.2 110.422C767.859 109.932 767.51 109.516 767.153 109.174C766.812 108.817 766.448 108.55 766.061 108.371C765.69 108.178 765.282 108.082 764.836 108.082H762.898V120.319H755.701V88.354H767.109C774.862 88.354 778.739 91.2518 778.739 97.0475C778.739 98.162 778.568 99.1949 778.226 100.146C777.885 101.082 777.402 101.929 776.778 102.687C776.154 103.445 775.397 104.099 774.506 104.649C773.629 105.199 772.649 105.63 771.565 105.942V106.031C772.04 106.179 772.5 106.425 772.946 106.766C773.392 107.093 773.822 107.48 774.238 107.926C774.654 108.371 775.048 108.854 775.419 109.374C775.805 109.88 776.154 110.378 776.466 110.868L782.504 120.319ZM762.898 93.7484V102.643H766.017C767.562 102.643 768.802 102.197 769.738 101.305C770.688 100.399 771.164 99.2766 771.164 97.9391C771.164 95.1453 769.493 93.7484 766.151 93.7484H762.898Z" fill="black"/>
<path d="M792.708 120.319H785.512V88.354H792.708V120.319Z" fill="black"/>
</svg>
